<?xml version="1.0" encoding="UTF-8" standalone="no"?>
<!-- Created with Inkscape (http://www.inkscape.org/) -->

<svg width="99.420937mm" height="19.130943mm" viewBox="0 0 99.420935 19.130943" version="1.1" id="svg1" xml:space="preserve"
  xmlns="http://www.w3.org/2000/svg"
  xmlns:svg="http://www.w3.org/2000/svg">
  <defs id="defs1" />
  <g id="layer1" transform="translate(-43.339659,-113.93997)">
    <path style="fill:#fff" d="m 137.15379,132.60624 c 0.13215,-0.25556 0.67296,-1.55103 1.2018,-2.87883 0.52885,-1.3278 1.29147,-3.21701 1.69472,-4.19824 2.15827,-5.25168 2.71028,-6.6287 2.71028,-6.76095 0,-0.0801 -0.55494,-0.12435 -1.23319,-0.0983 l -1.23319,0.0474 -0.31606,0.81093 c -0.17383,0.44602 -0.59847,1.57728 -0.94364,2.51391 -0.34517,0.93663 -0.84502,2.25035 -1.11079,2.91937 l -0.4832,1.21641 -0.31482,-0.72984 c -0.17315,-0.40142 -0.84857,-2.0983 -1.50094,-3.77086 l -1.18612,-3.04102 h -1.19121 c -0.65517,0 -1.19122,0.0698 -1.19122,0.15509 0,0.0853 0.44223,1.2348 0.98273,2.55445 0.54051,1.31965 1.45915,3.60009 2.04144,5.06764 l 1.0587,2.66827 -0.64876,1.71079 c -0.35682,0.94094 -0.69939,1.83851 -0.76128,1.99462 -0.10078,0.25419 0.007,0.28383 1.03597,0.28383 1.10003,0 1.15864,-0.0196 1.38878,-0.46465 z m -42.221962,-2.79089 c 1.04029,-0.74075 2.43218,-1.15786 4.345854,-1.30234 1.184228,-0.0894 1.985608,-0.2294 2.230078,-0.38958 l 0.38158,-0.25002 v -5.09358 c 0,-5.53481 -0.011,-5.60332 -0.90361,-5.60332 -0.32953,0 -0.39389,-0.0795 -0.39389,-0.48656 v -0.48656 l -1.256948,0.003 c -2.275244,0.005 -4.431424,0.66687 -4.999974,1.53458 l -0.26072,0.39792 -0.4108,-0.48821 c -0.79752,-0.94781 -2.48267,-1.44711 -4.88398,-1.44711 h -1.16258 v 0.48656 c 0,0.39573 -0.0681,0.48703 -0.36492,0.48905 -0.82816,0.006 -0.82266,-0.0244 -0.9004,4.91915 -0.04,2.54309 -0.0237,4.88511 0.0362,5.2045 0.15997,0.85273 0.60069,1.05728 2.63414,1.22255 1.85682,0.15092 3.24726,0.5566 4.26862,1.24543 0.69464,0.46849 1.03325,0.47771 1.64132,0.0447 z m -1.80086,-0.89072 c -0.88244,-0.49478 -2.55182,-0.89194 -4.1637,-0.99056 -1.00107,-0.0613 -1.74211,-0.18214 -1.84006,-0.30017 -0.10466,-0.1261 -0.14845,-1.9505 -0.12102,-5.04151 0.0396,-4.46452 0.0652,-4.84817 0.32683,-4.8985 0.26475,-0.0509 0.28382,0.24512 0.28382,4.40568 v 4.46027 l 0.42734,0.33615 c 0.26276,0.20669 0.6657,0.33615 1.04624,0.33615 1.39262,0 3.19955,0.61399 4.20453,1.42869 0.49598,0.40208 0.38915,0.57394 -0.16398,0.2638 z m 1.45994,0.0849 c 0,-0.54293 2.39738,-1.54679 4.062684,-1.70116 2.079028,-0.19273 1.938248,0.17825 1.938248,-5.10778 0,-3.84262 0.0358,-4.53751 0.23371,-4.53751 0.41743,0 0.44755,0.28636 0.52736,5.01342 0.093,5.50622 0.1876,5.20283 -1.624138,5.20721 -1.439624,0.004 -3.102564,0.34495 -4.259594,0.87465 -0.48305,0.22115 -0.87827,0.33418 -0.87827,0.25117 z m -0.16219,-5.50892 c 0,-5.44826 -0.008,-5.41117 1.33536,-6.06374 1.09298,-0.53087 3.970994,-0.91806 4.195034,-0.56437 0.179878,0.28398 0.186608,9.23383 0.007,9.51676 -0.0737,0.11623 -0.63823,0.28168 -1.25447,0.36767 -1.511434,0.21091 -2.763054,0.58093 -3.593794,1.06247 l -0.68929,0.39954 z m 1.70297,1.70887 c 0.35681,-0.12855 1.1049,-0.23693 1.66242,-0.24084 0.903174,-0.006 1.013674,-0.0425 1.013674,-0.3315 0,-0.27411 -0.1068,-0.32376 -0.689304,-0.32041 -1.3559,0.008 -3.03022,0.59299 -2.79333,0.97629 0.11607,0.18781 0.028,0.19693 0.80654,-0.0835 z m 0.51272,-1.62655 c 0.51371,-0.13381 1.21062,-0.24329 1.5487,-0.24329 0.462014,0 0.614674,-0.0662 0.614674,-0.26645 0,-0.23177 -0.16366,-0.25506 -1.256954,-0.17889 -1.34262,0.0935 -2.14899,0.3617 -2.14899,0.71466 0,0.27385 0.0992,0.27178 1.24257,-0.026 z m 0.0549,-1.56196 c 0.31221,-0.0733 0.91969,-0.13502 1.34994,-0.13714 0.658034,-0.003 0.773024,-0.049 0.723994,-0.2877 -0.11813,-0.57508 -3.227234,-0.10187 -3.344894,0.50909 -0.0463,0.24019 0.0117,0.2708 0.32348,0.17083 0.2089,-0.067 0.63527,-0.18177 0.94748,-0.25508 z m 0.64868,-1.6084 c 0.49057,-0.0829 1.01971,-0.11011 1.175864,-0.0606 0.2121,0.0673 0.2839,-7.8e-4 0.2839,-0.26924 0,-0.34886 -0.0372,-0.35647 -1.274904,-0.26103 -1.39565,0.10763 -2.13104,0.35813 -2.13104,0.72592 0,0.18261 0.12186,0.21186 0.52711,0.12654 0.28991,-0.061 0.92849,-0.17878 1.41907,-0.26164 z m 0.94454,-1.6108 c 0.580954,-0.003 0.691194,-0.0521 0.642894,-0.2872 -0.0684,-0.3332 -1.483314,-0.34394 -2.686304,-0.0204 -1.36592,0.36737 -1.08808,0.82018 0.32197,0.52474 0.56114,-0.11758 1.33579,-0.2153 1.72144,-0.21716 z m -5.81009,8.73153 c -0.8344,-0.43184 -1.56232,-0.61491 -3.44649,-0.86679 l -0.77036,-0.10299 v -4.93678 -4.93678 l 0.44602,0.005 c 2.32994,0.0262 4.44559,0.76471 4.83067,1.68634 0.32313,0.77335 0.35541,9.67574 0.035,9.63772 -0.1115,-0.0132 -0.60414,-0.2318 -1.09476,-0.48572 z m 0.28663,-2.45014 c -0.10882,-0.34061 -1.59959,-0.76618 -2.54444,-0.72636 -1.22308,0.0516 -1.26368,0.38858 -0.0626,0.51971 0.518,0.0566 1.19726,0.16426 1.50947,0.23934 0.84937,0.20427 1.17022,0.19471 1.09757,-0.0327 z m 0.0377,-1.4154 c 0,-0.36107 -0.83048,-0.66415 -2.08495,-0.76089 -1.16008,-0.0895 -1.32098,-0.0693 -1.32098,0.16545 0,0.20393 0.16346,0.27102 0.68929,0.28289 0.37912,0.009 1.05422,0.10937 1.50024,0.22402 1.04496,0.2686 1.2164,0.28108 1.2164,0.0885 z m -0.19711,-1.87679 c -0.035,-0.035 -0.51642,-0.17961 -1.06986,-0.3214 -1.20205,-0.30795 -2.22006,-0.26851 -2.22006,0.086 0,0.18234 0.28441,0.27155 1.13531,0.3561 0.62443,0.062 1.35427,0.17774 1.62188,0.25709 0.43915,0.13021 0.79113,-0.1194 0.53273,-0.3778 z m 0.005,-1.32328 c -0.1127,-0.58524 -3.24067,-1.03782 -3.34726,-0.48431 -0.0428,0.22215 0.0812,0.27769 0.64828,0.29034 0.38566,0.009 1.10261,0.108 1.59322,0.22089 0.49062,0.11289 0.95212,0.21533 1.02557,0.22764 0.0734,0.0123 0.10953,-0.10224 0.0802,-0.25456 z m 0.0913,-1.58016 c -0.0909,-0.23676 -1.03001,-0.49109 -2.454,-0.66459 -0.77117,-0.0939 -0.85148,-0.0739 -0.85148,0.21206 0,0.27512 0.15337,0.32876 1.19084,0.41646 0.65497,0.0554 1.36656,0.16698 1.58133,0.24804 0.46206,0.17439 0.65252,0.0987 0.53331,-0.21197 z m -21.898295,10.44765 c 0.913218,-0.34168 2.374493,-1.48426 2.374493,-1.85663 0,-0.21283 -1.427615,-1.21953 -1.729443,-1.21953 -0.08814,0 -0.337201,0.1894 -0.553457,0.42088 -0.604945,0.64754 -1.182943,0.87668 -2.209749,0.87602 -4.044095,-0.003 -4.183435,-6.60349 -0.146461,-6.93826 0.926322,-0.0768 1.630513,0.18015 2.368485,0.86428 l 0.405469,0.37589 0.952247,-0.59297 0.952247,-0.59298 -0.878143,-0.8151 c -2.711608,-2.51694 -7.34247,-1.47629 -8.662555,1.94665 -0.543292,1.40875 -0.44353,3.62552 0.224201,4.98187 1.216944,2.47197 4.182724,3.56754 6.902666,2.54988 z m 48.861877,-0.0606 c 0.45739,-0.21297 0.88136,-0.4677 0.94215,-0.56608 0.20691,-0.33478 0.41577,-0.18021 0.41577,0.30771 v 0.48656 h 1.13532 1.13531 v -3.65849 c 0,-4.30411 -0.0919,-4.80599 -1.08169,-5.90686 -1.62308,-1.80526 -4.88944,-1.98082 -7.31723,-0.39329 l -0.37064,0.24236 0.32554,0.43853 c 0.17905,0.24119 0.45877,0.60692 0.62162,0.81273 l 0.29607,0.3742 0.84919,-0.44057 c 2.073,-1.07551 3.95324,-0.37862 4.31109,1.59788 0.1252,0.69147 0.13093,0.68926 -0.94402,0.36316 -3.04782,-0.92458 -6.0968,0.75503 -6.0968,3.35857 0,2.63794 3.09193,4.23443 5.77832,2.98359 z m -2.2063,-1.55599 c -1.41482,-0.34153 -1.68857,-2.00365 -0.45396,-2.75639 0.83483,-0.50899 3.51733,-0.37732 3.87724,0.19033 0.8263,1.30324 -1.48315,3.03438 -3.42328,2.56606 z m -66.700396,1.53966 c 5.896685,-1.39026 7.92199,-8.61749 3.613131,-12.89334 -1.904258,-1.88967 -3.201863,-2.26995 -7.745548,-2.26995 h -3.290768 v 4.46016 4.46015 h 1.135313 1.135312 v -3.33972 -3.33972 l 2.392265,0.0589 c 2.238358,0.0552 2.447403,0.0878 3.249289,0.50698 1.952681,1.02083 2.842698,2.46556 2.928673,4.75398 0.05026,1.33774 0.01334,1.56796 -0.387189,2.41461 -1.09607,2.31691 -2.813975,3.16181 -6.428763,3.16181 h -1.592087 v 1.13531 1.13531 l 1.986796,-0.002 c 1.177607,-0.001 2.400914,-0.10003 3.003576,-0.24212 z m 10.379049,-5.22931 -0.0427,-5.47382 h -1.054219 -1.054219 l -0.0427,5.47382 -0.0427,5.47383 h 1.139627 1.139627 z m 20.149635,4.43851 v -1.03533 l -1.05279,-0.067 c -1.533969,-0.0977 -1.530823,-0.0902 -1.53705,-3.64763 l -0.0052,-2.94703 0.484298,-0.10637 c 0.26636,-0.0585 0.81137,-0.0863 1.21113,-0.0617 0.9249,0.0569 0.94887,0.0256 0.81317,-1.06048 l -0.11316,-0.90569 h -1.19772 -1.197718 v -1.48091 -1.48091 l -0.608203,0.10053 c -0.334512,0.0553 -0.84245,0.10134 -1.128753,0.10232 l -0.52055,0.002 -0.04711,1.33804 -0.04711,1.33805 -1.013672,0.0483 -1.013672,0.0483 v 1.04648 1.04648 h 1.054219 1.054218 l 0.0036,3.2843 c 0.0031,2.87131 0.04217,3.36933 0.310587,3.96051 0.475708,1.04773 1.43039,1.48268 3.294524,1.50098 l 1.25695,0.0123 z m 4.21688,-4.39796 v -5.43328 h -0.62848 c -0.34566,0 -0.85655,-0.0456 -1.13531,-0.10137 l -0.50684,-0.10136 v 5.53464 5.53465 h 1.13531 1.13532 z m 19.329322,1.9868 c 0.0501,-3.31725 0.067,-3.47263 0.45137,-4.1438 0.96805,-1.69056 3.37807,-1.85469 4.32271,-0.29437 0.27079,0.44727 0.31222,0.92768 0.36176,4.19489 l 0.0559,3.68976 h 1.03882 c 0.87693,0 1.04057,-0.0442 1.05008,-0.28383 0.10026,-2.52459 -0.0614,-7.53824 -0.26314,-8.15934 -0.80841,-2.4893 -4.28075,-3.3986 -6.67852,-1.74889 l -0.69242,0.4764 v -0.57545 -0.57545 h -0.89203 -0.89203 v 5.43328 5.43328 h 1.04268 1.04268 z m 22.9696,0.21872 c 0.0517,-3.31709 0.12306,-3.67523 0.90246,-4.5321 0.50629,-0.55661 1.09476,-0.81641 2.12293,-0.93725 l 0.91288,-0.10729 -0.0474,-1.07163 -0.0474,-1.07162 -0.64875,0.0472 c -0.97168,0.0707 -1.63778,0.32744 -2.44135,0.94082 -0.90751,0.69272 -0.88349,0.69774 -0.88349,-0.18453 v -0.73726 l -1.09476,0.048 -1.09477,0.048 -0.0512,4.37907 c -0.0282,2.40848 -0.004,4.8384 0.0542,5.39983 l 0.10545,1.02077 1.0811,-0.0477 1.08109,-0.0476 z m -66.614572,-9.73476 c 1.22201,-1.22201 -0.156594,-3.12458 -1.777559,-2.45315 -0.743475,0.30796 -1.092789,1.23699 -0.762408,2.02771 0.432679,1.03554 1.715066,1.25034 2.539967,0.42544 z m 24.18624,-0.0203 c 0.43826,-0.43826 0.48402,-0.57174 0.40302,-1.17561 -0.18654,-1.39079 -1.76557,-1.89127 -2.66563,-0.84489 -1.27633,1.48382 0.87667,3.40644 2.26261,2.0205 z" id="path1" />
  </g>
</svg>
