<?xml version="1.0" encoding="UTF-8" standalone="no"?>
<!-- Created with Inkscape (http://www.inkscape.org/) -->

<svg
   width="26.052761mm"
   height="31.068092mm"
   viewBox="0 0 26.052761 31.068092"
   version="1.1"
   id="svg1"
   xmlns="http://www.w3.org/2000/svg"
   xmlns:svg="http://www.w3.org/2000/svg">
  <defs
     id="defs1" />
  <g
     id="layer1"
     transform="translate(-48.947912,-88.900005)">
    <path
       style="fill:#040404;stroke:none;stroke-width:0.264583"
       d="m 56.232804,93.000543 c -1.568592,0 -3.015897,0.735761 -3.504977,2.328333 -0.169891,0.553212 -0.135689,1.122247 -0.135689,1.693334 -1.52394,0 -2.983982,0.691275 -3.48208,2.243666 -0.200013,0.623368 -0.158587,1.259424 -0.158587,1.905004 v 2.70933 9.398 2.70933 c 0,0.78991 -0.01751,1.57957 0.400207,2.286 1.00718,1.70331 2.676296,1.69334 4.425793,1.69334 h 5.164667 3.767667 c 1.670332,0 3.307583,0.0968 4.384047,-1.43934 0.190715,-0.27215 0.326339,-0.57356 0.427385,-0.889 0.177056,-0.55273 0.141567,-1.12082 0.141567,-1.69333 1.562595,0 2.97493,-0.71757 3.491685,-2.286 0.113781,-0.34535 0.148982,-0.69719 0.148982,-1.05833 0,-0.16269 -0.05113,-0.43739 0.04351,-0.57921 0.08688,-0.13019 0.28829,-0.0966 0.422156,-0.0983 0.327118,-0.004 0.664324,-0.0801 0.973667,-0.18423 0.806611,-0.27151 1.435198,-0.85839 1.844082,-1.59361 0.623639,-1.12136 0.357251,-2.70062 0.357251,-3.937 V 97.614876 93.59321 c 0,-1.543741 0.01966,-3.031373 -1.397,-4.012978 -1.445075,-1.001303 -3.66446,-0.601356 -5.334,-0.601356 h -6.688666 c -1.177464,0 -2.475972,-0.170889 -3.556,0.392106 -1.446148,0.753843 -1.735667,2.148199 -1.735667,3.629561 M 71.303471,110.44188 V 98.588543 c 0,-1.804107 0.262988,-3.698813 -1.354667,-4.931701 -1.128451,-0.860044 -2.60713,-0.656299 -3.936999,-0.656299 h -8.297334 c 0,-0.776286 -0.04245,-1.501391 0.592829,-2.066525 0.65286,-0.580776 1.475833,-0.473475 2.285838,-0.473475 h 4.699 5.503333 c 0.942369,0 1.864209,-0.02654 2.42035,0.889 0.332869,0.547982 0.288983,1.204462 0.288983,1.820333 v 3.090334 8.17033 c 0,1.35868 0.08902,2.75114 -0.0038,4.10634 -0.08823,1.28833 -0.976611,1.905 -2.197549,1.905 m -3.640667,4.02166 v -11.89566 c 0,-1.77704 0.262176,-3.689334 -1.354666,-4.890418 -1.014096,-0.753329 -2.193649,-0.655252 -3.386667,-0.655252 h -5.842 -2.286 c -0.181534,0 -0.681764,0.09166 -0.748542,-0.133271 -0.31292,-1.054008 0.565615,-2.246915 1.595209,-2.394022 1.125184,-0.160765 2.376325,-0.01271 3.513666,-0.01271 h 7.027334 c 1.215184,0 2.868371,-0.302307 3.485348,1.058333 0.252764,0.557431 0.197651,1.182481 0.197651,1.778 v 2.96334 10.71033 c 0,1.2527 0.198036,2.91669 -1.312333,3.3914 -0.294315,0.0925 -0.584041,0.0799 -0.889,0.0799 M 51.957138,98.516584 c 1.110867,-0.160153 2.348257,-0.01271 3.471333,-0.01271 h 6.942667 c 1.220137,0 2.807415,-0.318131 3.56825,0.889 0.301529,0.478402 0.24175,1.026656 0.24175,1.566336 v 2.75167 10.75266 c 0,1.43455 0.399826,3.65576 -1.524,4.00201 -1.088978,0.19599 -2.364012,0.0197 -3.471334,0.0197 h -7.027333 c -1.166705,0 -2.777956,0.30979 -3.47656,-0.889 -0.320904,-0.55067 -0.291107,-1.16258 -0.291107,-1.778 v -2.667 -10.541 c 0,-1.39862 -0.376338,-3.813552 1.566334,-4.093628 z"
       id="path1" />
  </g>
</svg>
